<svg xmlns="http://www.w3.org/2000/svg" viewBox="0 0 64 64">
  <defs>
    <linearGradient id="turtleGrad" x1="0%" y1="0%" x2="100%" y2="100%">
      <stop offset="0%" style="stop-color:#0066cc;stop-opacity:1" />
      <stop offset="100%" style="stop-color:#0055aa;stop-opacity:1" />
    </linearGradient>
  </defs>
  <!-- Shell body -->
  <ellipse cx="32" cy="38" rx="18" ry="14" fill="url(#turtleGrad)" opacity="0.15"/>
  <ellipse cx="32" cy="38" rx="18" ry="14" stroke="url(#turtleGrad)" stroke-width="2" fill="none"/>
  <!-- Shell pattern lines -->
  <line x1="24" y1="28" x2="24" y2="48" stroke="#0066cc" stroke-width="1.5" opacity="0.4"/>
  <line x1="32" y1="25" x2="32" y2="51" stroke="#0066cc" stroke-width="1.5" opacity="0.4"/>
  <line x1="40" y1="28" x2="40" y2="48" stroke="#0066cc" stroke-width="1.5" opacity="0.4"/>
  <line x1="14" y1="34" x2="50" y2="34" stroke="#0066cc" stroke-width="1.5" opacity="0.4"/>
  <line x1="14" y1="42" x2="50" y2="42" stroke="#0066cc" stroke-width="1.5" opacity="0.4"/>
  <!-- Head -->
  <circle cx="32" cy="16" r="5" fill="#0066cc" opacity="0.2"/>
  <circle cx="32" cy="16" r="5" stroke="#0066cc" stroke-width="1.5"/>
  <circle cx="30.5" cy="15" r="1" fill="#0066cc"/>
  <circle cx="33.5" cy="15" r="1" fill="#0066cc"/>
  <!-- Front legs -->
  <path d="M20 50 C18 52, 16 54, 16 54" stroke="#0066cc" stroke-width="2" stroke-linecap="round" fill="none"/>
  <path d="M26 52 C25 54, 24 55, 24 55" stroke="#0066cc" stroke-width="2" stroke-linecap="round" fill="none"/>
  <path d="M38 52 C39 54, 40 55, 40 55" stroke="#0066cc" stroke-width="2" stroke-linecap="round" fill="none"/>
  <path d="M44 50 C46 52, 48 54, 48 54" stroke="#0066cc" stroke-width="2" stroke-linecap="round" fill="none"/>
</svg>
